<svg xmlns="http://www.w3.org/2000/svg" xmlns:xlink="http://www.w3.org/1999/xlink" xmlns:sketch="http://www.bohemiancoding.com/sketch/ns" viewBox="0 0 65 81.25" version="1.1" x="0px" y="0px"><title>Rectangle 2289 Copy 3</title><desc>Created with Sketch.</desc><g stroke="none" stroke-width="1" fill="none" fill-rule="evenodd" sketch:type="MSPage"><path d="M38.9,64.5867639 L38.9,64.6 L0.5,64.6 L0.5,61.4 L0.5,10.2 L3.7,10.2 L3.7,10.2 L32.5,10.2 L32.5,16.6 L6.9,16.6 L6.9,58.2 L6.9,58.2 L32.9999297,58.2 C36.9484898,56.0424274 35.9550677,45.7690387 35.9550677,45.7690387 C35.9550677,45.7690387 46.3709977,46.5958788 48.5,42.3391023 L48.5,32.6 L54.9,32.6 L54.9,48.6 L54.8277338,48.6 L54.8277338,48.658789 C54.2976556,55.440039 47.0470636,64.2027267 38.9342363,64.5888913 C38.9228032,64.5881795 38.9113911,64.5874704 38.9,64.5867639 Z M48.5,10.2 L38.9,10.2 L38.9,16.6 L48.5,16.6 L48.5,26.2 L54.9,26.2 L54.9,16.6 L64.5,16.6 L64.5,10.2 L54.9,10.2 L54.9,0.6 L48.5,0.6 L48.5,10.2 L48.5,10.2 Z" fill="#8e44ad" sketch:type="MSShapeGroup"/></g></svg>